<svg width="624" height="104" viewBox="0 0 624 104" fill="none" xmlns="http://www.w3.org/2000/svg">
<path d="M557.519 86.9634C555.967 86.9634 555.006 85.2733 555.8 83.9402L575.758 50.4207L557.426 18.9705C556.649 17.6372 557.611 15.9634 559.154 15.9634H577.4C578.146 15.9634 578.829 16.3779 579.174 17.0388L589.64 37.1144L599.912 17.0519C600.255 16.3837 600.942 15.9634 601.693 15.9634H617.733C619.261 15.9634 620.224 17.6073 619.478 18.9404L602.242 49.7256L622.242 83.9544C623.021 85.2877 622.059 86.9634 620.515 86.9634H602.159C601.422 86.9634 600.745 86.5579 600.396 85.9083L587.868 62.5354L575.339 85.9083C574.991 86.5579 574.314 86.9634 573.576 86.9634H557.519Z" fill="#343434"/>
<path d="M507.667 87.9634C485.696 87.9634 472 73.1059 472 51.8101V51.0176C472 29.4247 487.598 14.9634 507.952 14.9634C528.687 14.9634 544 28.5333 544 50.5224V51.3148C544 73.1058 529.638 87.9634 507.667 87.9634ZM508.048 72.0163C517.654 72.0163 523.646 64.2904 523.646 51.612V50.8196C523.646 38.2402 517.559 30.8114 507.952 30.8114C498.346 30.8114 492.354 38.0421 492.354 50.9186V51.711C492.354 64.5875 498.631 72.0163 508.048 72.0163Z" fill="#343434"/>
<path d="M415.009 86.9634C414.147 86.9634 413.382 86.4113 413.111 85.5934L390.873 18.5934C390.443 17.2988 391.407 15.9634 392.771 15.9634H410.471C411.361 15.9634 412.145 16.5522 412.392 17.4077L426.392 65.8123L440.49 17.4042C440.738 16.5504 441.521 15.9634 442.41 15.9634H457.24C458.601 15.9634 459.564 17.293 459.14 18.5862L437.184 85.5862C436.915 86.4078 436.148 86.9634 435.284 86.9634H415.009Z" fill="#343434"/>
<path d="M312 86.9634C310.895 86.9634 310 86.068 310 84.9634V17.9634C310 16.8588 310.895 15.9634 312 15.9634H331.607C332.328 15.9634 332.994 16.3521 333.349 16.9806L355.352 55.9816V17.9634C355.352 16.8588 356.248 15.9634 357.352 15.9634H371C372.105 15.9634 373 16.8588 373 17.9634V84.9634C373 86.068 372.105 86.9634 371 86.9634H354.634C353.919 86.9634 353.259 86.5821 352.902 85.9631L327.746 42.3774V84.9634C327.746 86.068 326.851 86.9634 325.746 86.9634H312Z" fill="#343434"/>
<path d="M250.667 87.9634C228.696 87.9634 215 73.1059 215 51.8101V51.0176C215 29.4247 230.598 14.9634 250.952 14.9634C271.687 14.9634 287 28.5333 287 50.5224V51.3148C287 73.1058 272.638 87.9634 250.667 87.9634ZM251.048 72.0163C260.654 72.0163 266.646 64.2904 266.646 51.612V50.8196C266.646 38.2402 260.559 30.8114 250.952 30.8114C241.346 30.8114 235.354 38.0421 235.354 50.9186V51.711C235.354 64.5875 241.631 72.0163 251.048 72.0163Z" fill="#343434"/>
<path d="M162.983 87.9634C138.195 87.9634 126 73.5216 126 51.859V51.0677C126 29.3062 141.467 14.9634 162.19 14.9634C179.9 14.9634 192.398 22.8081 194.855 39.9867C195.021 41.1503 194.095 42.1653 192.919 42.1653H175.979C174.959 42.1653 174.116 41.3928 173.915 40.3926C172.696 34.2994 168.82 30.9878 162.289 30.9878C153.167 30.9878 147.416 38.1097 147.416 50.9688V51.7601C147.416 64.5203 152.87 71.7412 162.586 71.7412C169.174 71.7412 173.988 68.5405 175.472 61.906C175.692 60.923 176.528 60.168 177.536 60.168H193.843C195.007 60.168 195.93 61.1639 195.777 62.318C193.543 79.2107 180.593 87.9634 162.983 87.9634Z" fill="#343434"/>
<path fill-rule="evenodd" clip-rule="evenodd" d="M96.0135 54.7742C96.0135 55.4931 95.6277 56.1567 95.0029 56.5123L49.8062 82.2397C48.2517 83.1245 46.343 83.1116 44.8006 82.2058L1.48073 56.764C0.563404 56.2252 0 55.2409 0 54.1771V47.9733C0 47.2057 0.829094 46.7243 1.49575 47.1048L44.945 71.907C46.4642 72.7742 48.3261 72.7844 49.8548 71.9339L94.5273 47.0779C95.1939 46.7071 96.0135 47.189 96.0135 47.9518V54.7742Z" fill="#343434"/>
<path fill-rule="evenodd" clip-rule="evenodd" d="M96.0135 35.1526C96.0135 35.8715 95.6277 36.5351 95.0029 36.8907L49.8062 62.6181C48.2517 63.503 46.343 63.49 44.8006 62.5842L0.987156 36.8525C0.375603 36.4933 0 35.8371 0 35.1279V28.3517C0 27.5841 0.829094 27.1027 1.49575 27.4832L44.945 52.2854C46.4642 53.1526 48.3261 53.1628 49.8548 52.3123L94.5273 27.4564C95.1939 27.0855 96.0135 27.5674 96.0135 28.3302V35.1526Z" fill="#343434"/>
<path fill-rule="evenodd" clip-rule="evenodd" d="M96.0135 28.8957C96.0135 28.1768 95.6277 27.5132 95.0029 27.1576L49.8062 1.43025C48.2517 0.545387 46.343 0.558313 44.8006 1.46414L0.987156 27.1959C0.375603 27.555 0 28.2112 0 28.9204V33.9744C0 35.5096 1.65819 36.4724 2.9915 35.7113L44.945 11.7629C46.4642 10.8957 48.3261 10.8855 49.8548 11.7361L93.0411 35.7651C94.3742 36.5068 96.0135 35.5429 96.0135 34.0174V28.8957Z" fill="#343434"/>
<path fill-rule="evenodd" clip-rule="evenodd" d="M96.0135 73.8147C96.0135 74.893 95.4348 75.8884 94.4976 76.4219L49.8062 101.862C48.2517 102.746 46.343 102.734 44.8006 101.828L1.48073 76.3859C0.563404 75.8471 0 74.8628 0 73.799V67.5952C0 66.8276 0.829094 66.3462 1.49575 66.7267L44.945 91.5289C46.4642 92.3961 48.3261 92.4063 49.8548 91.5558L94.5273 66.6998C95.1939 66.329 96.0135 66.8109 96.0135 67.5737V73.8147Z" fill="#343434"/>
</svg>
